<?xml version="1.0" standalone="no"?>
<!DOCTYPE svg PUBLIC "-//W3C//DTD SVG 20010904//EN"
 "http://www.w3.org/TR/2001/REC-SVG-20010904/DTD/svg10.dtd">
<svg version="1.0" xmlns="http://www.w3.org/2000/svg"
 width="530.000000pt" height="289.000000pt" viewBox="0 0 530.000000 289.000000"
 preserveAspectRatio="xMidYMid meet">

<g transform="translate(0.000000,289.000000) scale(0.100000,-0.100000)"
 fill="currentColor" stroke="none">
<path d="M210 2017 c0 -375 5 -715 10 -755 11 -85 64 -222 116 -300 68 -103
188 -209 300 -265 187 -94 449 -108 619 -32 17 8 43 19 59 25 61 23 168 104
240 182 84 90 153 214 181 327 21 84 29 219 17 299 -9 63 -8 65 31 142 33 64
41 91 45 152 4 67 -5 143 -23 190 -5 14 6 21 60 37 57 18 73 19 105 10 52 -16
86 -6 94 27 8 31 -16 74 -42 74 -9 0 -39 -11 -67 -24 -27 -13 -81 -31 -119
-40 -76 -17 -69 -20 -112 41 -14 19 -13 25 9 70 13 26 28 59 32 73 4 14 23 42
41 63 53 58 40 107 -28 107 -37 0 -48 -19 -48 -79 0 -44 -7 -68 -30 -108 -16
-28 -33 -54 -38 -57 -4 -2 -35 8 -67 24 -116 56 -272 50 -380 -16 l-57 -34
-76 11 c-135 19 -276 -1 -414 -61 l-86 -37 -4 166 c-3 157 -5 169 -31 225 -15
33 -49 80 -76 106 -47 46 -161 110 -230 130 l-31 9 0 -682z m1318 131 c23 -6
42 -15 42 -20 0 -7 -14 -7 -37 -2 -21 5 -72 9 -113 9 -41 0 -92 -4 -112 -9
-54 -12 -49 9 5 22 84 22 122 22 215 0z m-298 -206 l90 -92 -38 0 c-73 -1
-166 -65 -192 -134 -6 -17 -10 -60 -9 -98 2 -64 0 -69 -27 -90 -128 -97 -497
-507 -518 -575 -4 -13 -10 -23 -14 -23 -17 2 -96 115 -129 186 -47 104 -65
228 -51 364 5 52 13 104 18 115 36 84 73 155 97 185 53 68 144 147 210 184 84
46 113 54 113 31 0 -16 7 -17 57 -11 59 7 75 18 66 44 -5 12 11 14 115 10
l121 -4 91 -92z m299 -302 c44 -44 84 -88 89 -98 14 -25 25 -163 17 -206 -6
-31 -11 -36 -35 -36 -37 0 -62 -30 -58 -72 2 -23 10 -36 26 -43 28 -12 28 -26
-4 -89 -87 -174 -273 -314 -462 -347 -82 -15 -225 -5 -309 21 -73 22 -173 70
-173 81 0 10 136 226 151 239 3 3 18 23 35 45 16 22 39 51 50 65 12 14 41 48
64 75 23 28 81 90 128 138 81 83 87 87 116 80 50 -13 118 -8 156 12 66 34 117
109 122 181 1 19 3 34 5 34 1 0 38 -36 82 -80z"/>
<path d="M908 1903 c-44 -11 -24 -83 23 -83 26 0 59 27 59 48 0 30 -38 47 -82
35z"/>
<path d="M673 1742 c-60 -25 -106 -78 -128 -151 l-19 -63 25 -45 c36 -69 68
-88 142 -87 102 1 175 56 203 152 45 153 -72 255 -223 194z"/>
<path d="M361 1354 c0 -11 3 -14 6 -6 3 7 2 16 -1 19 -3 4 -6 -2 -5 -13z"/>
<path d="M567 1249 c-28 -40 5 -79 54 -64 25 8 40 44 27 68 -13 24 -63 22 -81
-4z"/>
<path d="M1246 1417 c-23 -17 -18 -70 7 -75 35 -7 67 8 73 33 12 47 -38 73
-80 42z"/>
<path d="M1124 1299 c-53 -12 -113 -64 -143 -124 -27 -55 -26 -141 2 -170 9
-9 17 -20 17 -24 0 -15 73 -41 116 -41 113 0 214 102 214 217 0 56 -21 96 -62
121 -42 25 -92 32 -144 21z"/>
<path d="M790 900 c-31 -7 -49 -52 -30 -74 35 -43 123 14 92 60 -11 16 -34 21
-62 14z"/>
<path d="M1095 864 c-21 -21 -16 -68 8 -72 35 -7 67 8 73 33 12 48 -45 75 -81
39z"/>
<path d="M3385 1864 c-49 -8 -165 -46 -165 -55 0 -4 -9 -11 -20 -14 -64 -20
-165 -180 -195 -309 -20 -84 -19 -295 1 -383 70 -304 373 -468 626 -337 16 8
47 34 70 57 l40 42 -5 -78 c-9 -135 -73 -229 -173 -257 -77 -22 -168 6 -228
69 l-30 31 -148 0 c-86 0 -148 -4 -148 -9 0 -31 75 -167 116 -211 89 -95 185
-131 349 -132 178 -2 335 52 430 147 107 106 114 147 115 645 0 484 -7 524
-105 638 -40 47 -181 121 -268 141 -54 13 -216 22 -262 15z m239 -278 c47 -36
71 -74 96 -155 51 -162 6 -370 -94 -438 -37 -25 -49 -28 -126 -28 -101 1 -138
17 -176 75 -57 85 -71 262 -32 404 18 66 28 87 63 122 49 48 63 53 161 51 61
-2 76 -6 108 -31z"/>
<path d="M4445 1856 c-135 -26 -234 -96 -285 -201 -20 -41 -24 -65 -24 -140 0
-121 28 -174 129 -242 52 -35 217 -90 352 -117 123 -25 173 -59 173 -118 0
-34 -37 -72 -86 -88 -57 -19 -190 -8 -236 20 -41 24 -78 76 -78 109 0 20 -4
21 -145 21 -109 0 -145 -3 -145 -12 1 -35 31 -151 48 -184 63 -121 211 -184
437 -184 186 0 306 34 389 111 77 71 100 124 104 239 4 106 -7 146 -57 203
-36 40 -152 99 -241 122 -36 9 -101 25 -145 37 -177 44 -218 69 -213 127 5 52
42 75 133 79 95 5 138 -10 189 -65 60 -66 80 -73 195 -73 55 0 102 4 105 8 9
15 -20 117 -48 169 -34 61 -65 92 -127 126 -99 55 -290 79 -424 53z"/>
<path d="M1922 1448 c4 -342 7 -400 22 -448 48 -149 107 -196 337 -269 49 -15
197 -14 261 3 184 49 267 111 308 230 33 98 40 187 40 535 l0 341 -97 0 c-80
0 -104 -4 -130 -20 -62 -37 -63 -45 -63 -398 0 -212 -4 -330 -11 -353 -15 -44
-45 -76 -94 -101 -76 -39 -183 -20 -242 44 -37 40 -42 96 -43 471 l0 357 -146
0 -145 0 3 -392z"/>
</g>
</svg>